<?xml version="1.0" encoding="utf-8"?>
<!-- Generator: Adobe Illustrator 21.0.2, SVG Export Plug-In . SVG Version: 6.00 Build 0)  -->
<svg version="1.1" id="Layer_1" xmlns="http://www.w3.org/2000/svg" xmlns:xlink="http://www.w3.org/1999/xlink" x="0px" y="0px"
	 viewBox="0 0 309.5 107.6" style="enable-background:new 0 0 309.5 107.6;" xml:space="preserve">
<style type="text/css">
	.st0{fill:#153B65;}
	.st1{fill:#E8212F;}
</style>
<g>
	<path class="st0" d="M16.8,86.1v3.3h-6.5v17.8H6.5V89.4H0v-3.3H16.8z"/>
	<path class="st0" d="M19.5,107.1v-23l3.7-0.6v7.9c0.5-0.2,0.9-0.3,1.4-0.4c0.5-0.1,1.1-0.2,1.6-0.2c1.1,0,2.2,0.1,3.2,0.5
		c0.8,0.3,1.5,0.8,2,1.5c0.5,0.7,0.9,1.5,1.1,2.3c0.2,1,0.3,2,0.3,3v8.9h-3.7v-8.3c0-0.7,0-1.5-0.2-2.2c-0.1-0.5-0.3-1-0.5-1.5
		c-0.2-0.4-0.6-0.7-1-0.8c-0.5-0.2-1-0.3-1.6-0.3c-0.5,0-1,0.1-1.5,0.2c-0.4,0.1-0.8,0.2-1.1,0.3v12.7L19.5,107.1z"/>
	<path class="st0" d="M41.3,86.6c0,0.6-0.2,1.2-0.7,1.6c-0.4,0.4-1,0.6-1.6,0.6c-0.6,0-1.2-0.2-1.6-0.6c-0.5-0.4-0.7-1-0.7-1.6
		c0-0.6,0.2-1.2,0.7-1.7c0.4-0.4,1-0.6,1.6-0.6c0.6,0,1.2,0.2,1.6,0.6C41.1,85.3,41.4,85.9,41.3,86.6z M40.9,107.1h-3.7V91.2h3.7
		V107.1z"/>
	<path class="st0" d="M45.6,91.8c0.9-0.2,1.8-0.4,2.8-0.6c1.2-0.2,2.5-0.3,3.8-0.3c1.1,0,2.2,0.1,3.2,0.5c0.8,0.3,1.5,0.8,2.1,1.5
		c0.5,0.7,0.9,1.5,1.1,2.3c0.2,1,0.3,2,0.3,3v8.9h-3.7v-8.4c0-0.7,0-1.5-0.2-2.2c-0.1-0.5-0.3-1-0.6-1.5c-0.2-0.4-0.6-0.7-1-0.8
		c-0.5-0.2-1.1-0.3-1.6-0.3c-0.5,0-1,0-1.5,0.1l-1.1,0.2v12.8h-3.7V91.8z"/>
	<path class="st0" d="M67.1,97.4l1.5-1.6c0.5-0.6,1-1.1,1.6-1.7l1.4-1.6c0.5-0.5,0.8-1,1.2-1.3h4.3c-1,1.1-2.1,2.3-3.2,3.5
		c-1.1,1.2-2.2,2.4-3.4,3.6c0.7,0.6,1.3,1.2,1.9,1.8c0.7,0.7,1.3,1.5,1.9,2.3s1.2,1.6,1.8,2.4c0.5,0.7,1,1.5,1.4,2.2h-4.3
		c-0.4-0.6-0.8-1.3-1.3-2s-1-1.4-1.5-2c-0.5-0.7-1.1-1.3-1.7-1.8c-0.5-0.5-1.1-1-1.7-1.5v7.3h-3.7v-23l3.7-0.6V97.4z"/>
	<path class="st0" d="M101.6,107.1c-0.7-1.2-1.4-2.4-2.3-3.7c-0.9-1.3-1.8-2.7-2.7-4c-0.9-1.3-1.8-2.6-2.8-3.9
		c-0.9-1.3-1.8-2.4-2.7-3.4v15.1h-3.8V86.1h3.1c0.8,0.9,1.7,1.9,2.6,3s1.9,2.4,2.8,3.6c0.9,1.3,1.9,2.5,2.7,3.8s1.7,2.4,2.4,3.5V86
		h3.8v21.1L101.6,107.1z"/>
	<path class="st0" d="M108.9,99.2c0-1.3,0.2-2.5,0.6-3.7c0.4-1,0.9-1.9,1.7-2.6c0.7-0.7,1.5-1.2,2.4-1.6c0.9-0.4,1.8-0.5,2.7-0.5
		c1.9-0.1,3.8,0.6,5.1,2c1.2,1.3,1.8,3.4,1.8,6.1c0,0.2,0,0.4,0,0.7c0,0.2,0,0.5,0,0.7h-10.5c0,1.1,0.5,2.2,1.4,3
		c1,0.7,2.2,1.1,3.5,1c0.8,0,1.6-0.1,2.4-0.2c0.6-0.1,1.2-0.3,1.8-0.5l0.5,3c-0.3,0.1-0.6,0.2-0.8,0.3c-0.4,0.1-0.8,0.2-1.2,0.3
		c-0.5,0.1-0.9,0.2-1.5,0.2c-0.5,0.1-1.1,0.1-1.6,0.1c-1.2,0-2.5-0.2-3.6-0.6c-1-0.4-1.8-1-2.6-1.7c-0.7-0.8-1.2-1.6-1.5-2.6
		C109,101.4,108.9,100.3,108.9,99.2z M119.5,97.6c0-0.5-0.1-1-0.2-1.4c-0.1-0.4-0.3-0.8-0.6-1.2c-0.3-0.3-0.6-0.6-1-0.8
		c-0.4-0.2-0.9-0.3-1.4-0.3c-0.5,0-1,0.1-1.5,0.3c-0.4,0.2-0.8,0.5-1.1,0.8c-0.3,0.4-0.5,0.8-0.7,1.2c-0.2,0.4-0.3,0.9-0.3,1.4
		L119.5,97.6z"/>
	<path class="st0" d="M132.8,96.1l3.4-4.9h3.9l-5.3,7.6c1.1,1.4,2.2,2.8,3.2,4.2c0.9,1.3,1.8,2.6,2.5,4h-4c-0.2-0.4-0.5-0.8-0.7-1.2
		c-0.3-0.4-0.6-0.9-0.9-1.4c-0.3-0.5-0.7-1-1-1.4c-0.4-0.5-0.7-0.9-1.1-1.3c-0.7,0.9-1.4,1.8-2.1,2.7c-0.7,1-1.2,1.9-1.7,2.7h-3.8
		c0.3-0.7,0.7-1.3,1.1-1.9c0.4-0.7,0.9-1.4,1.4-2.1s1-1.4,1.6-2.1c0.5-0.7,1.1-1.4,1.6-2l-5.4-7.8h4L132.8,96.1z"/>
	<path class="st0" d="M143,87l3.7-0.6v4.8h5.7v3.1h-5.6v6.5c-0.1,1,0.1,1.9,0.6,2.7c0.5,0.6,1.3,0.9,2.1,0.8c0.6,0,1.2-0.1,1.8-0.2
		c0.4-0.1,0.8-0.2,1.2-0.4l0.6,2.9c-0.5,0.2-1.1,0.4-1.7,0.6c-0.8,0.2-1.6,0.3-2.4,0.3c-1,0-1.9-0.1-2.8-0.5
		c-0.7-0.3-1.3-0.7-1.8-1.3c-0.5-0.6-0.8-1.3-0.9-2.1c-0.2-0.9-0.3-1.9-0.3-2.8L143,87z"/>
	<path class="st0" d="M160.3,105.1c0,0.7-0.2,1.3-0.7,1.7c-1,0.9-2.5,0.9-3.4,0c-0.5-0.5-0.7-1.1-0.7-1.7c0-0.7,0.2-1.3,0.7-1.8
		c1-0.9,2.5-0.9,3.4,0C160.1,103.8,160.3,104.5,160.3,105.1z"/>
	<path class="st0" d="M185.7,107.1c-0.7-1.2-1.4-2.4-2.3-3.7c-0.9-1.3-1.8-2.7-2.6-4c-0.9-1.3-1.8-2.6-2.8-3.9s-1.8-2.4-2.7-3.4
		v15.1h-3.8V86.1h3.1c0.8,0.9,1.7,1.9,2.6,3s1.9,2.4,2.8,3.6c0.9,1.3,1.9,2.5,2.7,3.8c0.9,1.3,1.7,2.4,2.4,3.5V86h3.8v21.1
		L185.7,107.1z"/>
	<path class="st0" d="M208.2,99.2c0,1.2-0.2,2.3-0.6,3.4c-0.3,1-0.9,1.9-1.6,2.7c-0.7,0.7-1.5,1.3-2.4,1.7c-1,0.4-2,0.6-3.1,0.6
		c-1.1,0-2.1-0.2-3.1-0.6c-0.9-0.4-1.7-1-2.4-1.7c-0.7-0.8-1.2-1.7-1.6-2.7c-0.4-1.1-0.6-2.3-0.6-3.4c0-1.2,0.2-2.3,0.6-3.4
		c0.3-1,0.9-1.9,1.6-2.6c0.7-0.7,1.5-1.3,2.4-1.7c1-0.4,2-0.6,3.1-0.6c1.1,0,2.1,0.2,3.1,0.6c0.9,0.4,1.7,1,2.4,1.7
		c0.7,0.8,1.2,1.7,1.6,2.6C208.1,96.8,208.2,98,208.2,99.2z M204.5,99.2c0.1-1.3-0.3-2.6-1-3.8c-1.2-1.6-3.5-1.9-5.1-0.6
		c-0.2,0.2-0.4,0.4-0.6,0.6c-0.7,1.1-1.1,2.4-1,3.8c-0.1,1.3,0.3,2.7,1,3.8c1.2,1.6,3.5,1.9,5,0.7c0.2-0.2,0.5-0.4,0.7-0.7
		C204.2,101.8,204.5,100.5,204.5,99.2z"/>
	<path class="st0" d="M221.2,97.1c-0.5,1.8-1,3.5-1.5,5.2s-1.1,3.3-1.6,4.8h-3c-0.4-0.9-0.8-2-1.3-3.2c-0.4-1.2-0.9-2.5-1.3-3.8
		c-0.4-1.3-0.9-2.8-1.3-4.3s-0.9-3.1-1.3-4.6h3.9c0.2,0.9,0.4,1.8,0.6,2.8c0.2,1,0.5,2,0.8,3c0.3,1,0.5,2,0.8,3
		c0.3,1,0.6,1.9,0.9,2.7c0.3-0.9,0.6-1.9,0.9-2.9c0.3-1,0.6-2,0.8-3c0.3-1,0.5-2,0.8-2.9s0.4-1.8,0.6-2.7h2.8
		c0.2,0.8,0.4,1.7,0.6,2.7c0.2,0.9,0.5,1.9,0.7,2.9c0.3,1,0.5,2,0.8,3s0.6,2,0.9,2.9c0.3-0.8,0.5-1.7,0.8-2.7c0.3-1,0.6-2,0.8-3
		c0.3-1,0.5-2,0.8-3c0.2-1,0.5-1.9,0.6-2.8h3.8c-0.4,1.6-0.9,3.1-1.3,4.6c-0.4,1.5-0.9,2.9-1.3,4.3c-0.4,1.3-0.9,2.6-1.3,3.8
		s-0.9,2.3-1.3,3.2h-3c-0.5-1.5-1.1-3.1-1.6-4.8S221.7,98.9,221.2,97.1z"/>
	<path class="st0" d="M238.7,105.1c0,0.7-0.2,1.3-0.7,1.7c-1,0.9-2.5,0.9-3.5,0c-0.5-0.5-0.7-1.1-0.7-1.7c0-0.7,0.2-1.3,0.7-1.8
		c1-0.9,2.5-0.9,3.5,0C238.5,103.8,238.8,104.5,238.7,105.1z"/>
	<path class="st0" d="M0.1,33.8v-0.2C0.1,15.1,14,0,34,0c12.2,0,19.6,4.1,25.6,10l-9.1,10.5c-5-4.5-10.1-7.3-16.6-7.3
		c-11,0-18.8,9.1-18.8,20.2v0.2C15,44.7,22.7,54,33.9,54c7.4,0,12-3,17.1-7.6l9.1,9.2c-6.7,7.1-14.1,11.6-26.6,11.6
		C14.3,67.2,0.1,52.4,0.1,33.8"/>
	<path class="st0" d="M61.7,56.6l8.4-10.1c5.8,4.8,12,7.9,19.4,7.9c5.8,0,9.4-2.3,9.4-6.1V48c0-3.6-2.2-5.5-13.1-8.3
		c-13.1-3.3-21.5-7-21.5-19.8v-0.2C64.3,8,73.7,0.2,87,0.2c8.8-0.1,17.3,2.8,24.1,8.3l-7.4,10.8c-5.8-4-11.4-6.4-16.9-6.4
		s-8.3,2.5-8.3,5.7v0.2c0,4.3,2.8,5.7,14,8.5c13.2,3.4,20.6,8.2,20.6,19.5v0.2c0,12.9-9.8,20.1-23.8,20.1
		C79.1,67,69.3,63.3,61.7,56.6"/>
	<path class="st0" d="M118.4,1.1h29.7c8.3,0,14.7,2.3,18.9,6.6c3.6,3.6,5.6,8.7,5.6,14.8v0.2c0,10.5-5.7,17.1-13.9,20.1l15.9,23.2
		h-16.7l-13.9-20.8h-11.2v20.8h-14.3V1.1z M147.2,32.7c7,0,10.9-3.7,10.9-9.2v-0.2c0-6.1-4.3-9.3-11.2-9.3h-14.2v18.6H147.2z"/>
	<path class="st0" d="M197.9,0.6h13.2L238.9,66H224L218,51.5h-27.5L184.6,66h-14.6L197.9,0.6z M212.9,38.9l-8.6-21.1l-8.6,21.1
		L212.9,38.9z"/>
	<polygon class="st0" points="260.1,16.7 224,16.7 217.2,0.7 253.2,0.7 	"/>
	<polygon class="st1" points="270.5,41.2 234.4,41.2 227.6,25.3 263.7,25.3 	"/>
	<polygon class="st1" points="281,66.1 245,66.1 238,49.7 274.1,49.7 	"/>
	<polygon class="st1" points="288.5,25.3 269.8,25.3 263,9.2 281.8,9.2 	"/>
	<polygon class="st1" points="298.9,49.7 280.2,49.7 273.4,33.8 292.1,33.8 	"/>
	<polygon class="st1" points="309.5,74.7 290.8,74.7 283.9,58.4 302.6,58.4 	"/>
</g>
</svg>
